<?xml version="1.0" encoding="UTF-8" standalone="no"?>
<svg xmlns="http://www.w3.org/2000/svg" version="1.1" viewBox="0 0 61.347 43.270396">
	<g style="
		fill: #2678c7;
		fill-opacity: 1;
		fill-rule: nonzero;
		stroke: none;
		stroke-width: 0.352774
	">
		<path d="
			m 2.797415,4.5226242
			h 5.706456
			c 1.539272,0 2.797418,1.2581106 2.797418,2.7959646
			v 1.1093041
			h -3.201183
			v -0.7427526
			c 0,-0.1956755 -0.169499,-0.3665515 -0.376202,-0.3665515
			h -4.383539
			c -0.195682,0 -0.365182,0.170876 -0.365182,0.3665515
			v 6.8142407
			c 0,0.206705 0.1695,0.376201 0.365182,0.376201
			h 4.383539
			c 0.206703,0 0.376202,-0.169496 0.376202,-0.376201
			v -0.84334
			h 3.201183
			v 1.087244
			c 0,1.529594 -1.258146,2.787715 -2.797418,2.787715
			h -5.706456
			c -1.539268,0 -2.797415,-1.258121 -2.797415,-2.787715
			v -7.4246962
			c 0,-1.537854 1.258147,-2.7959646 2.797415,-2.7959646
		" />
		<path d="
			m 12.107443,4.5226242
			h 3.03306
			v 10.3529578
			h 5.827726
			v 2.655418
			h -8.860786
			z
		" />
		<path d="
			m 21.785404,4.5226242
			h 9.385822
			v 2.6650577
			h -6.33622
			v 2.4225333
			h 5.80154
			v 2.8345638
			h -5.80154
			v 2.421153
			h 6.33622
			v 2.665068
			h -9.385822
		" />
		<path
			d="
			m 43.270396,4.5226242 -3.62286,13.0083758
			h -4.15892
			l -3.50022,-13.0083758
			h 2.97519
			l 2.59071,10.1283428 2.54386,-10.1283428
			z
		" />
		<path d="
			m 47.184026,7.0746845
			c -0.32935,0 -0.60083,0.2728437 -0.60083,0.602186
			v 6.5882455
			c 0,0.329353 0.27148,0.600816 0.60083,0.600816
			h 4.03627
			c 0.33762,0 0.60083,-0.271463 0.60083,-0.600816
			v -6.5882455
			c 0,-0.3293423 -0.26321,-0.602186 -0.60083,-0.602186
			z
			m -0.8723,-2.5520603
			h 5.76296
			c 1.46485,0 2.67477,1.2016119 2.67477,2.6747075
			v 7.6589513
			c 0,1.474465 -1.20992,2.674717 -2.67477,2.674717
			h -5.76296
			c -1.47312,0 -2.67615,-1.200252 -2.67615,-2.674717
			v -7.6589513
			c 0,-1.4730956 1.20303,-2.6747075 2.67615,-2.6747075
		" />
		<!-- <path d="
			m 58.569376,1.6315618
			c -0.0179,-0.01 -0.0372,-0.01 -0.0565,-0.01
			h -1.0225
			v 1.1451132
			h 1.25815
			c 0.43132,-0.037199 0.75929,-0.2535441 0.75929,-0.5718666 0,-0.3197026 -0.33762,-0.5539571 -0.75103,-0.5636068
			z
			m 1.62471,3.0219694
			h -0.51677
			l -1.079,-1.4827354
			h -1.10794
			v 1.4827354
			h -0.45062
			v -3.4157199
			h 1.44556
			c 0.24391,0 0.44097,0.01 0.61047,0.027599 0.15985,0.028899 0.31833,0.075798 0.45889,0.1502065 0.1502,0.075798 0.26458,0.1791458 0.34726,0.300403 0.0951,0.1226471 0.13229,0.2728436 0.13229,0.4506094 0,0.2439043 -0.0937,0.4230501 -0.25355,0.5911662 -0.15021,0.169496 -0.48921,0.3293423 -0.75104,0.385841
			z
		" />
		<path d="
			m 58.399876,0.26044391
			c -1.48552,0 -2.69406,1.20438179 -2.69406,2.68573719 0,1.4799754 1.20854,2.6857372 2.69406,2.6857372 1.48139,0 2.6858,-1.2057618 2.6858,-2.6857372 0,-1.4813554 -1.20441,-2.68573719 -2.6858,-2.68573719
			m 0,5.63190829
			c -1.62884,0 -2.95451,-1.3228791 -2.95451,-2.9461711 0,-1.624672 1.32567,-2.9461811 2.95451,-2.9461811 1.62609,0 2.94762,1.3215091 2.94762,2.9461811 0,1.623292 -1.32153,2.9461711 -2.94762,2.9461711
		" /> -->
	</g>
</svg>
